{"title":"Ninja 2 Shadow of a Tear (2013) 1080p BDRip MP4 AC3 - {inyd}","uid":9503603,"size":7217033591,"categoryP":"video","categoryS":"hd___movies","magnet":"?xt=urn:btih:29d8a8fd0925ea992ffa2d8f7761fae9e5a0b4ad&amp;dn=Ninja+2+Shadow+of+a+Tear+%282013%29+1080p+BDRip+MP4+AC3+-+%7Binyd%7D&amp;tr=udp%3A%2F%2Ftracker.openbittorrent.com%3A80&amp;tr=udp%3A%2F%2Fopen.demonii.com%3A1337&amp;tr=udp%3A%2F%2Ftracker.coppersurfer.tk%3A6969&amp;tr=udp%3A%2F%2Fexodus.desync.com%3A6969","seeders":1,"leechers":0,"uploader":"imPROvise","files":-1,"time":1390272703,"description":"General                                \nName                                     : Ninja: Shadow of a Tear (2013)\nFormat                                   : MPEG-4\nFormat profile                           : Base Media\nCodec ID                                 : isom\nFile size                                : 6.72 GiB\nDuration                                 : 1h 34mn\nOverall bit rate mode                    : Variable\nOverall bit rate                         : 10.2 Mbps\nWriting application                      : Lavf54.59.106\n\nVideo\nID                                       : 1\nFormat                                   : MPEG-4 Visual\nFormat profile                           : Simple@L1\nFormat settings, BVOP                    : No\nFormat settings, QPel                    : No\nFormat settings, GMC                     : No warppoints\nFormat settings, Matrix                  : Default (H.263)\nCodec ID                                 : 20\nDuration                                 : 1h 34mn\nBit rate mode                            : Variable\nBit rate                                 : 9 832 Kbps\nMaximum bit rate                         : 10 000 Kbps\nWidth                                    : 1 920 pixels\nHeight                                   : 1 080 pixels\nDisplay aspect ratio                     : 16:9\nFrame rate mode                          : Constant\nFrame rate                               : 29.970 fps\nColor space                              : YUV\nChroma subsampling                       : 4:2:0\nBit depth                                : 8 bits\nScan type                                : Progressive\nCompression mode                         : Lossy\nBits/(Pixel*Frame)                       : 0.158\nStream size                              : 6.51 GiB (97%)\nWriting library                          : Lavc54.86.100\n\nAudio\nID                                       : 2\nFormat                                   : AC-3\nFormat/Info                              : Audio Coding 3\nMode extension                           : CM (complete main)\nFormat settings, Endianness              : Big\nCodec ID                                 : ac-3\nDuration                                 : 1h 34mn\nBit rate mode                            : Constant\nBit rate                                 : 320 Kbps\nChannel(s)                               : 6 channels\nChannel positions                        : Front: L C R, Side: L R, LFE\nSampling rate                            : 44.1 KHz\nBit depth                                : 16 bits\nCompression mode                         : Lossy\nStream size                              : 217 MiB (3%)\n\nScreens: &lt;a href=&quot;\nhttp://postimg.org/image/v4yci2p6j/&quot; rel=&quot;nofollow&quot; target=&quot;_NEW&quot;&gt;\nhttp://postimg.org/image/v4yci2p6j/&lt;/a&gt; &lt;a href=&quot;\nhttp://postimg.org/image/6lcq038gt/&quot; rel=&quot;nofollow&quot; target=&quot;_NEW&quot;&gt;\nhttp://postimg.org/image/6lcq038gt/&lt;/a&gt; &lt;a href=&quot;\nhttp://postimg.org/image/6g8yqf15p/&quot; rel=&quot;nofollow&quot; target=&quot;_NEW&quot;&gt;\nhttp://postimg.org/image/6g8yqf15p/&lt;/a&gt; &lt;a href=&quot;\nhttp://postimg.org/image/x6ju9e07d/&quot; rel=&quot;nofollow&quot; target=&quot;_NEW&quot;&gt;\nhttp://postimg.org/image/x6ju9e07d/&lt;/a&gt; &lt;a href=&quot;\nhttp://postimg.org/image/7rgpyvwqx/&quot; rel=&quot;nofollow&quot; target=&quot;_NEW&quot;&gt;\nhttp://postimg.org/image/7rgpyvwqx/&lt;/a&gt;\n\nEnjoy and Please help seed as much as possible for others!!! - inotyourdaddy {inyd}\n\nJoin me on SuprBay: The PirateBay Forum - Report any fake torrents, torrents with passwords, malware, viruses, or spam comments. Have any site issues that need attended to ask on the forum. Request for any video, music, software, or other can be made on the forum. Don't forget to hit my rep. button :) -   &lt;a href=&quot; https://forum.suprbay.org/member.php?action=register&amp;referrer=251&quot; rel=&quot;nofollow&quot; target=&quot;_NEW&quot;&gt; https://forum.suprbay.org/member.php?action=register&amp;referrer=251&lt;/a&gt;\n\n","torrent":{"xt":"urn:btih:29d8a8fd0925ea992ffa2d8f7761fae9e5a0b4ad","amp;dn":"Ninja+2+Shadow+of+a+Tear+%282013%29+1080p+BDRip+MP4+AC3+-+%7Binyd%7D","amp;tr":["udp%3A%2F%2Ftracker.openbittorrent.com%3A80","udp%3A%2F%2Fopen.demonii.com%3A1337","udp%3A%2F%2Ftracker.coppersurfer.tk%3A6969","udp%3A%2F%2Fexodus.desync.com%3A6969"],"infoHash":"29d8a8fd0925ea992ffa2d8f7761fae9e5a0b4ad","infoHashBuffer":{"type":"Buffer","data":[41,216,168,253,9,37,234,153,47,250,45,143,119,97,250,233,229,160,180,173]},"announce":[],"urlList":[]}}